<?xml version="1.0" encoding="UTF-8"?>
<svg version="1.1" xmlns="http://www.w3.org/2000/svg" 
     width="600" height="280" 
     viewBox="0 0 600 280">
  
  <!-- Maria Golia Signature (simplified) -->
  <g transform="translate(30.0, 15) scale(0.5769230769230769)">
    <path d="namedview36" fill="black"/>
    <path d="m 452.8125,8.875 c 7.03211,12.845918 -20.10389,27.579614 -6.12526,2.409077 l 2.67301,-1.6946057 z" fill="black"/>
    <path d="m 462,19 c 18.12813,15.756461 1.41219,44.649595 -10,61 -3.22007,25.86673 1.91331,54.19005 5.1459,80.52754 4.51834,19.23725 -6.04789,50.36657 4.8541,62.47246 17.65506,-19.02292 29.67204,-41.61673 44.87205,-60 27.16179,-20.27522 -14.59974,21.09431 -13.99705,33.125 -7.73408,12.11088 -12.18434,24.66649 -23.875,23.875 -20.98911,29.05335 14.41325,60.39987 9.08558,91.99603 C 480.99901,346.9842 438.71131,317.9371 455,304 c 15.82478,31.17397 -3.67316,-25.12765 0.24781,-32.72085 -7.29379,-41.10137 3.08946,43.21486 -7.33213,23.49764 -3.40736,-30.20557 6.97339,-59.79979 1.87333,-90.11663 2.41881,-35.88404 -7.95972,-70.67269 -7.29272,-106.459721 C 434.1155,85.663771 440.11815,61.075347 451.65932,72.514975 462.71272,56.924779 462.24739,36.481545 462,19 Z" fill="black"/>
    <path d="m 443,33 c 10.33575,4.484647 -4.44168,51.814576 -3.70896,16.651173 C 440.22512,44.177437 439.81028,37.772531 443,33 Z" fill="black"/>
    <path d="m 21.0625,54.0625 c 10.495173,24.141063 4.193239,55.57257 11.5,81.66406 C 35.446436,167.82204 39.322504,199.96053 42,232 59.710297,216.14018 42.404084,282.93358 35.718751,245.125 33.934661,210.33902 27.280309,175.92738 25.755616,140.98511 25.950893,113.72715 11.723268,75.262295 21.0625,54.0625 Z" fill="black"/>
    <path d="M 70.5,59 C 84.703381,78.800571 81.305386,108.11938 84.873653,132.31109 88.02265,167.39405 93.369184,202.47452 101,237 c 4.25996,-5.29751 16.64465,-35.51932 14.38407,-8.02108 C 104.53593,271.5868 82.506544,218.90289 84.960827,199.83895 81.19992,159.57086 77.042567,119.52028 72.316895,79.378906 71.823751,71.95099 54.380159,63.056216 70.5,59 Z" fill="black"/>
    <path d="m 588.4375,59.4375 c 19.7089,12.792909 4.38645,44.49835 7.46585,64.77222 C 601.15501,148.97661 607.62172,174.20148 618,197 c 7.63765,-3.17771 20.17698,-35.35602 14.77872,-6.71045 -15.52392,46.99586 -38.18052,-20.37547 -40.80473,-41.4471 -2.69799,-36.58376 -17.00005,3.74506 -34.40837,10.08758 -28.20963,5.89693 19.42549,-16.68172 21.05938,-31.68003 10.81686,-7.00832 -1.97797,-61.512857 10.43477,-41.554134 10.63497,20.874254 -4.51304,-29.90943 -0.62227,-26.258366 z" fill="black"/>
    <path d="m 125,72 c 16.22122,22.175508 16.75228,52.44974 22.5218,78.85541 4.25015,25.48058 4.61544,51.95607 14.54803,76.12448 -0.64894,37.26216 5.40997,74.19874 8.46858,111.26163 2.86668,30.77945 51.03181,9.16074 72.32487,18.75457 73.80921,4.97601 147.65311,5.38374 221.48858,-0.87731 35.6063,0.34705 70.84791,-5.02341 106.4498,-5.28499 33.52654,-4.35708 67.52665,-3.95053 101.24312,-6.34887 60.96554,-1.69982 123.19785,-1.65281 183.3746,-2.5267 31.39492,16.94462 -27.25194,3.44022 -39.36084,6.76686 -67.40128,-0.56127 -134.75696,-0.0189 -202.0395,3.66657 -66.05147,3.24667 -132.1592,9.70743 -198.19482,11.58073 -35.3836,0.0838 -70.73795,6.27914 -106.11377,2.48905 C 264.8042,366.57347 219.79122,363.0255 175,361 c -0.54354,26.23307 -15.80295,-16.80491 -33.85383,-4.3664 -41.24462,-6.711 -84.054955,-2.79586 -124.98342,-9.4547 -31.16942,-19.12277 22.536047,-1.58846 36.614293,-3.87299 35.274351,-0.47334 70.581987,2.84083 105.352167,7.38284 8.81183,-20.46899 -4.77103,-59.91583 -3.68067,-87.9819 C 147.40459,212.06471 143.2665,161.06334 133.74131,110.81427 132.35936,100.98548 125.69253,68.935438 116.96157,86.557641 115.84208,134.74459 102.75915,64.914225 125,72 Z" fill="black"/>
    <path d="m 669,76 c 20.65977,16.187206 64.08791,-1.195422 74.84375,15.890625 C 721.5145,104.01464 682.9544,81.229838 669.34496,90.2002 c 13.02505,42.08949 45.62974,74.21653 62.99031,114.36325 -2.0187,34.97059 -20.23688,-36.91554 -30.17248,-28.88904 C 695.2667,191.75244 675.24951,188.55078 695,175 c 7.34163,-35.85798 -37.08179,-0.5761 -13,12 -17.89434,-0.42691 -22.09517,-9.62169 -26.8125,-28.5625 C 644.6655,150.17519 630.46339,192.35262 636,161 c 7.86635,-24.02342 31.03848,-9.55474 27.97349,9.62171 C 673.59639,170.81105 672.39147,142.41553 690,149 686.03845,128.05729 644.87648,87.920192 669,76 Z" fill="black"/>
    <path d="m 433,93 c 1.17961,15.94353 -31.83862,27.5071 -49.79756,32.26515 C 372.37598,129.99231 325.48081,135.99758 353.25,122.9375 382.51725,120.48279 409.27658,110.09113 433,93 Z" fill="black"/>
    <path d="m 111,114 c 9.30229,15.22732 -5.37737,34.34319 -2.23047,6.28125 C 108.6536,118.03707 108.65156,115.27625 111,114 Z" fill="black"/>
    <path d="m 323,121 c 10.34606,3.26013 29.12211,49.6685 10.22402,23.408 C 330.0303,139.00782 317.20524,129.99159 323,121 Z" fill="black"/>
    <path d="m 253.25,149.5 c 10.50426,8.56705 19.32329,26.38411 31.75,17.5 1.27708,27.03692 -28.09015,-2.61372 -25.76745,25.51859 -2.3713,18.91285 -20.14416,59.4309 -41.47379,32.08001 -6.68949,-13.11046 -16.22968,-28.77382 -16.41501,-3.86813 C 176.30357,236.89312 216.05721,189.48096 190,188 c 7.84986,-5.4223 13.96665,-24.90171 -0.57686,-27.46309 -19.66911,6.09437 -18.84278,61.77792 -30.57548,52.00606 -4.99831,-25.88563 39.52376,-93.32405 46.13573,-39.51681 -4.16565,21.39506 24.33536,75.11143 42.02311,39.1046 13.10098,-21.64559 8.09327,-44.32832 6.2435,-62.63076 z" fill="black"/>
    <path d="m 541,161 c -5.12173,13.49012 9.77174,69.49798 -18.125,49.56641 C 517.96332,194.13428 507.79264,145.82537 541,161 Z m -11,9 c -3.3504,4.48877 3.69676,4.55257 0,0 z m -2,16 c -4.8258,23.02373 12.3356,24.26417 0,0 z" fill="black"/>
    <path d="m 356,171 c 22.67016,5.74872 28.09035,33.27351 39,53 -16.69602,-6.90936 -18.52034,-46.00132 -42,-32 3.26332,-5.75188 9.88235,-10.65484 3,-21 z" fill="black"/>
    <path d="m 312,182 c 9.76979,7.62317 8.35325,12.68795 -3,7 -2.26694,24.55764 -10.67169,-1.49211 2.67441,-6.83721 z" fill="black"/>
    <path d="m 277,185 c 11.14601,7.31581 9.11488,25.461 18,34 -15.19779,1.77536 -18.38594,-22.9049 -18,-34 z" fill="black"/>
  </g>
  
  <!-- Piano Keys Underline -->
  <g transform="translate(70, 225)">
    <path d="M 0,10 Q 115,20 230,10 Q 345,0 460,10"
          fill="none"
          stroke="black"
          stroke-width="2.5"
          stroke-linecap="round"/>
    
    <g stroke="black" stroke-width="1.8" stroke-linecap="round">
      <line x1="340" y1="7" x2="340" y2="19"/>
      <line x1="352" y1="6" x2="352" y2="18"/>
      <line x1="364" y1="5" x2="364" y2="17"/>
      <line x1="376" y1="5" x2="376" y2="17"/>
      <line x1="388" y1="5" x2="388" y2="17"/>
      <line x1="400" y1="6" x2="400" y2="18"/>
      <line x1="412" y1="6" x2="412" y2="18"/>
      <line x1="424" y1="7" x2="424" y2="19"/>
      <line x1="436" y1="8" x2="436" y2="20"/>
    </g>
  </g>
</svg>
